<svg xmlns="http://www.w3.org/2000/svg">
  <symbol id="css-icon-external-link" viewBox="0 0 48 48">
        <path d="M22 6V9H9V39H39V26H42V42H6V6H22ZM42 6V20H39V11.2L21 29L19 27L36.8 9H28V6H42Z" fill="currentcolor"></path>
  </symbol>
  <symbol id="css-icon-search" viewBox="0 0 24 24">
        <path d="m21 20.5-6-6a7.4 7.4 0 0 0 1.9-5A7.4 7.4 0 0 0 9.5 2 7.5 7.5 0 1 0 14 15.5l6 6 1-1ZM3.5 9.5a6 6 0 0 1 6-6 6 6 0 0 1 6 6 6 6 0 0 1-6 6 6 6 0 0 1-6-6Z" fill="currentcolor"></path>
  </symbol>
</svg>